<?xml version="1.0" encoding="utf-8"?>
<!-- Generator: Adobe Illustrator 25.2.1, SVG Export Plug-In . SVG Version: 6.00 Build 0)  -->
<svg version="1.1" id="Camada_1" xmlns="http://www.w3.org/2000/svg" xmlns:xlink="http://www.w3.org/1999/xlink" x="0px" y="0px"
	 viewBox="0 0 100 100" style="enable-background:new 0 0 100 100;" xml:space="preserve">
<style type="text/css">
	.st0{fill:url(#SVGID_1_);}
	.st1{fill-rule:evenodd;clip-rule:evenodd;fill:#FFFFFF;}
</style>
<linearGradient id="SVGID_1_" gradientUnits="userSpaceOnUse" x1="50" y1="100.0114" x2="50" y2="0.012">
	<stop  offset="0" style="stop-color:#54BD60"/>
	<stop  offset="1" style="stop-color:#58A05E"/>
</linearGradient>
<circle class="st0" cx="50" cy="50.01" r="50"/>
<g>
	<g>
		<path class="st1" d="M50.53,69.44c-4.27,0-8.25-1.28-11.58-3.46l-8.07,2.56l2.6-7.78c-2.52-3.42-4.01-7.69-4.01-12.26
			c0-0.68,0.04-1.32,0.13-2.01c1.03-10.6,10.04-18.88,20.94-18.88c11.07,0,20.17,8.5,21.02,19.27c0.04,0.56,0.04,1.11,0.04,1.62
			C71.59,60.04,62.15,69.44,50.53,69.44L50.53,69.44z M62.02,53.54c-0.64-0.3-3.63-1.79-4.19-2.01c-0.6-0.17-0.98-0.3-1.41,0.34
			c-0.39,0.6-1.58,1.97-1.92,2.35c-0.39,0.43-0.73,0.47-1.32,0.17c-0.64-0.3-2.61-0.94-4.96-3.03c-1.84-1.62-3.08-3.59-3.42-4.19
			c-0.34-0.64-0.04-0.94,0.26-1.28c0.3-0.26,0.64-0.68,0.94-1.07c0.09-0.09,0.17-0.17,0.21-0.26c0.17-0.26,0.26-0.47,0.39-0.73
			c0.21-0.43,0.13-0.77-0.04-1.07c-0.13-0.3-1.37-3.33-1.88-4.53c-0.51-1.24-1.02-1.02-1.37-1.02c-0.38,0-0.77-0.04-1.19-0.04
			c-0.43,0-1.07,0.13-1.62,0.77c-0.6,0.6-2.18,2.05-2.18,5.08c0,0.68,0.13,1.41,0.34,2.05c0.6,2.18,1.97,3.93,2.18,4.23
			c0.3,0.43,4.23,6.75,10.47,9.19c6.28,2.44,6.28,1.62,7.39,1.54c1.11-0.09,3.63-1.45,4.15-2.91c0.51-1.41,0.51-2.65,0.34-2.9
			C63.05,54.01,62.62,53.84,62.02,53.54L62.02,53.54z M75.57,47.9c-0.34-13.46-11.41-24.23-25.04-24.23
			c-13.46,0-24.44,10.51-24.99,23.75c-0.04,0.34-0.04,0.73-0.04,1.07c0,4.7,1.32,9.1,3.59,12.86l-4.53,13.33l13.88-4.4
			c3.59,1.97,7.73,3.08,12.09,3.08c13.84,0,25.08-11.11,25.08-24.87C75.61,48.29,75.57,48.12,75.57,47.9L75.57,47.9z"/>
	</g>
</g>
</svg>
