<?xml version="1.0" encoding="utf-8"?>
<!-- Generator: Adobe Illustrator 25.2.1, SVG Export Plug-In . SVG Version: 6.00 Build 0)  -->
<svg version="1.1" id="Camada_1" xmlns="http://www.w3.org/2000/svg" xmlns:xlink="http://www.w3.org/1999/xlink" x="0px" y="0px"
	 viewBox="0 0 100 100" style="enable-background:new 0 0 100 100;" xml:space="preserve">
<style type="text/css">
	.st0{fill:url(#SVGID_1_);}
	.st1{fill:#FFFFFF;}
</style>
<g>
	<linearGradient id="SVGID_1_" gradientUnits="userSpaceOnUse" x1="50" y1="99.5427" x2="50" y2="0.4573">
		<stop  offset="0" style="stop-color:#FEC053"/>
		<stop  offset="0.3273" style="stop-color:#F2203E"/>
		<stop  offset="0.6485" style="stop-color:#B729A8"/>
		<stop  offset="1" style="stop-color:#5342D6"/>
	</linearGradient>
	<path class="st0" d="M50,0.46C22.64,0.46,0.46,22.64,0.46,50c0,27.36,22.18,49.54,49.54,49.54c27.36,0,49.54-22.18,49.54-49.54
		C99.54,22.64,77.36,0.46,50,0.46z M76.57,61.55c0,8.34-6.76,15.1-15.11,15.1H38.6c-8.34,0-15.11-6.76-15.11-15.1V38.68
		c0-8.34,6.76-15.1,15.11-15.1h22.87c8.34,0,15.11,6.76,15.11,15.1V61.55z M72.09,38.61c0-5.83-4.73-10.56-10.56-10.56H38.52
		c-5.83,0-10.56,4.73-10.56,10.56v23.01c0,5.83,4.73,10.56,10.56,10.56h23.01c5.83,0,10.56-4.73,10.56-10.56V38.61z M50,63.59
		c-7.49,0-13.59-6.1-13.59-13.59c0-7.49,6.1-13.59,13.59-13.59c7.49,0,13.59,6.1,13.59,13.59C63.59,57.49,57.49,63.59,50,63.59z
		 M64.17,38.9c-1.8,0-3.27-1.46-3.27-3.27c0-1.8,1.46-3.27,3.27-3.27c1.8,0,3.27,1.46,3.27,3.27C67.44,37.44,65.97,38.9,64.17,38.9z
		 M59.04,50c0,4.98-4.05,9.04-9.04,9.04c-4.98,0-9.04-4.06-9.04-9.04c0-4.98,4.06-9.04,9.04-9.04C54.98,40.96,59.04,45.02,59.04,50z
		"/>
	<g>
		<g>
			<g>
				<path class="st1" d="M61.35,76.26H38.61c-8.29,0-15.03-6.74-15.03-15.03V38.49c0-8.29,6.74-15.03,15.03-15.03h22.74
					c8.28,0,15.03,6.74,15.03,15.03v22.74C76.38,69.52,69.64,76.26,61.35,76.26z M38.61,27.99c-5.79,0-10.5,4.71-10.5,10.5v22.74
					c0,5.79,4.71,10.5,10.5,10.5h22.74c5.79,0,10.5-4.71,10.5-10.5V38.49c0-5.79-4.71-10.5-10.5-10.5H38.61z"/>
			</g>
			<g>
				<path class="st1" d="M49.98,63.38c-7.45,0-13.52-6.06-13.52-13.52c0-7.45,6.06-13.52,13.52-13.52c7.45,0,13.52,6.06,13.52,13.52
					C63.5,57.32,57.44,63.38,49.98,63.38z M49.98,40.87c-4.96,0-8.99,4.03-8.99,8.99c0,4.96,4.03,8.99,8.99,8.99
					c4.96,0,8.99-4.03,8.99-8.99C58.97,44.91,54.94,40.87,49.98,40.87z"/>
			</g>
			<g>
				<path class="st1" d="M67.33,35.57c0,1.79-1.45,3.25-3.25,3.25c-1.79,0-3.25-1.45-3.25-3.25c0-1.79,1.46-3.25,3.25-3.25
					C65.87,32.32,67.33,33.78,67.33,35.57z"/>
			</g>
		</g>
	</g>
</g>
</svg>
