<?xml version="1.0" encoding="utf-8"?>
<!-- Generator: Adobe Illustrator 25.0.0, SVG Export Plug-In . SVG Version: 6.00 Build 0)  -->
<svg version="1.1" id="Camada_1" xmlns="http://www.w3.org/2000/svg" xmlns:xlink="http://www.w3.org/1999/xlink" x="0px" y="0px"
	 viewBox="0 0 416 416" style="enable-background:new 0 0 416 416;" xml:space="preserve">
<style type="text/css">
	.st0{fill:#FD0201;}
	.st1{fill:#EF3E3E;}
	.st2{fill:#FEFCFB;}
	.st3{fill:#F90A08;}
	.st4{fill:#F36362;}
</style>
<image style="overflow:visible;" width="768" height="768" xlink:href="iconyoutube.png"  transform="matrix(nan nan nan nan nan nan)">
</image>
<g>
	<circle class="st0" cx="208" cy="208" r="208"/>
	<g>
		<path class="st1" d="M203.8,283.9c-14.5,0.8-33.6-0.7-52.8-1.2c-8.2-0.2-16.6-0.8-24.7-2.8c-11.8-2.9-18.8-10.3-21.4-22.1
			c-2.4-10.7-3.2-21.7-3.5-32.6c-0.6-19.4-1.1-38.9,1.9-58.2c1.3-8.5,2.5-17.2,9.2-23.7c5.4-5.2,12.2-7.2,19.3-8
			c7.2-0.9,14.5-1.8,21.8-2c28.9-1,57.9-1.9,86.8-0.9c17,0.6,34.2,0.4,51,4.4c10.8,2.5,16.5,10,19.4,19.9c3.3,11.5,3.9,23.4,4,35.3
			c0.3,18.9,0.9,37.9-2,56.8c-1.1,7.5-2.4,15-7.4,21.3c-5.1,6.4-11.8,9.7-19.5,10.7c-10,1.3-20.2,1.5-30.3,2.3
			C240,284.1,224.2,283.7,203.8,283.9z M228.1,281.6c4.3,0,8.7,0.1,13,0c15-0.6,30-0.6,44.8-3.1c13.7-2.3,21.6-9.6,23.8-23.2
			c5.1-31.5,4.9-63,0.1-94.5c-0.6-4.1-2-8-4.4-11.6c-6.6-9.9-16.8-11.8-27.5-12.7c-30.7-2.8-61.6-2.8-92.4-2.3
			c-18.1,0.3-36.3,0.5-54.3,3.3c-14.8,2.3-22.3,9.1-24.8,23.9c-5.2,30.3-4.8,60.7-0.5,91c0.7,4.9,1.8,9.8,4.6,14.1
			c6.4,10,16.5,12.1,27.2,13.1C167.8,282.2,197.9,282.1,228.1,281.6z"/>
		<path class="st2" d="M228.1,281.6c-30.1,0.5-60.3,0.6-90.3-2c-10.7-1-20.8-3-27.2-13.1c-2.8-4.4-3.9-9.3-4.6-14.1
			c-4.2-30.4-4.6-60.8,0.5-91c2.5-14.8,10-21.6,24.8-23.9c18-2.8,36.2-3,54.3-3.3c30.8-0.5,61.6-0.5,92.4,2.3
			c10.7,1,20.9,2.8,27.5,12.7c2.4,3.6,3.7,7.5,4.4,11.6c4.8,31.5,5,63-0.1,94.5c-2.2,13.6-10,20.9-23.8,23.2
			c-14.8,2.5-29.8,2.5-44.8,3.1C236.7,281.7,232.4,281.6,228.1,281.6z M237.3,205.7c-0.4-1.2-1.1-1.8-2.4-1.5
			c-0.2-0.2-0.4-0.3-0.7-0.4c-11.8-7.9-24.1-15-37-21.1c-0.6-0.3-1.3-0.7-1.9-1c-0.4-1.7-2.1-2.1-3.3-2.8c-1.5-0.9-3.1-2.5-5-1.3
			c-1.5,1.1-0.8,3.1-0.8,4.7c0,9,0,17.9,0,26.9c0,8.5,0.1,17,0.1,25.4c0,3.8,1.5,4.4,4.6,2.6c3-1.8,6.1-3.4,9.1-5.2
			c7.8-4.7,16.2-8.3,23.3-14c0.3,0,0.5-0.2,0.7-0.4c2.6-0.4,4.8-1.4,6.2-3.7c0.3-0.1,0.5-0.2,0.8-0.3c3.3-0.3,5.8-2.4,8.3-4.1
			c2.9-2,1.5-3.2-1.3-3.5C237.8,205.9,237.5,205.8,237.3,205.7z"/>
		<path class="st3" d="M195.2,181.8c0.6,0.3,1.3,0.7,1.9,1c3.2,4.2,8.3,5.8,12.7,8.2c8,4.4,15.4,10.2,24.3,12.9
			c0.3,0.1,0.5,0.2,0.7,0.4c0.3,1.4,1.1,1.8,2.4,1.5c0.3,0,0.5,0.2,0.7,0.4c0.6,2.3-1.2,3-2.6,4.1c-1.5,1.2-3.9,1.2-4.4,3.5
			c-0.2,0.2-0.5,0.3-0.8,0.3c-2.6,0.4-4.9,1.2-6.2,3.7c-0.2,0.2-0.4,0.3-0.7,0.4c-2-0.4-3.5,1-5,1.8c-8.5,4.8-17,9.7-25.4,14.6
			c-4,2.3-4.8,1.9-4.8-2.8c-0.1-14.6-0.1-29.2-0.1-43.8C187.9,180,187.8,180,195.2,181.8z"/>
		<path class="st4" d="M195.2,181.8c-7.4-1.8-7.4-1.8-7.3,6.2c0.1,14.6,0,29.2,0.1,43.8c0,4.7,0.8,5.1,4.8,2.8
			c8.5-4.9,16.9-9.8,25.4-14.6c1.5-0.9,3-2.2,5-1.8c-7.1,5.7-15.6,9.3-23.3,14c-3,1.8-6.1,3.4-9.1,5.2c-3.1,1.8-4.6,1.1-4.6-2.6
			c0-8.5-0.1-16.9-0.1-25.4c0-9-0.1-17.9,0-26.9c0-1.6-0.7-3.6,0.8-4.7c1.8-1.3,3.5,0.4,5,1.3C193.2,179.7,194.8,180.1,195.2,181.8z
			"/>
		<path class="st4" d="M234.2,203.9c-8.9-2.7-16.3-8.5-24.3-12.9c-4.4-2.4-9.4-3.9-12.7-8.2C210,188.9,222.3,195.9,234.2,203.9z"/>
		<path class="st4" d="M230.9,213.7c0.6-2.3,3-2.4,4.4-3.5c1.4-1.1,3.2-1.8,2.6-4.1c2.8,0.3,4.1,1.5,1.3,3.5
			C236.7,211.4,234.2,213.4,230.9,213.7z"/>
		<path class="st4" d="M223.9,217.7c1.3-2.5,3.6-3.3,6.2-3.7C228.7,216.4,226.5,217.4,223.9,217.7z"/>
		<path class="st4" d="M237.3,205.7c-1.3,0.3-2.1-0.1-2.4-1.5C236.2,203.9,236.9,204.5,237.3,205.7z"/>
	</g>
</g>
</svg>
